# xmcd CD database file
#
# Track frame offsets:
#	150
#	43818
#	94930
#	147516
#	179671
#
# Disc length: 2822 seconds
#
# Revision: 0
# Processed by: cddbd v1.5PL3 Copyright (c) Steve Scherf et al.
# Submitted via: CDex 1.51
#
DISCID=4a0b0405
DTITLE=Nick Brignola and Pepper Adams - Baritone Madness
DYEAR=1977
DGENRE=Jazz
TTITLE0=Donna Lee
TTITLE1=Billie's Bounce
TTITLE2=Marmeduke
TTITLE3=Body and Soul
TTITLE4=Alone Together
EXTD=YEAR: 1977
EXTT0=
EXTT1=
EXTT2=
EXTT3=
EXTT4=
PLAYORDER=
